<svg xmlns="http://www.w3.org/2000/svg" viewBox="0 0 27.87 27.79"><defs><style>.cls-1{fill:#dadada}.cls-2{fill:#2d96ce;opacity:.85}</style></defs><title>close-hover</title><g id="Layer_2" data-name="Layer 2"><g id="Layer_1-2" data-name="Layer 1"><g id="_Group_" data-name="&lt;Group&gt;"><g id="_Group_2" data-name="&lt;Group&gt;"><g id="_Group_3" data-name="&lt;Group&gt;"><circle id="_Path_" data-name="&lt;Path&gt;" class="cls-1" cx="13.95" cy=".61" r=".61"/><circle id="_Path_2" data-name="&lt;Path&gt;" class="cls-1" cx="17.98" cy="1.24" r=".61"/><circle id="_Path_3" data-name="&lt;Path&gt;" class="cls-1" cx="21.52" cy="2.97" r=".61"/><circle id="_Path_4" data-name="&lt;Path&gt;" class="cls-1" cx="24.37" cy="5.63" r=".61"/><circle id="_Path_5" data-name="&lt;Path&gt;" class="cls-1" cx="26.35" cy="9.02" r=".61"/><circle id="_Path_6" data-name="&lt;Path&gt;" class="cls-1" cx="27.26" cy="12.95" r=".61"/><circle id="_Path_7" data-name="&lt;Path&gt;" class="cls-1" cx="26.94" cy="17.05" r=".61"/><circle id="_Path_8" data-name="&lt;Path&gt;" class="cls-1" cx="25.47" cy="20.73" r=".61"/><circle id="_Path_9" data-name="&lt;Path&gt;" class="cls-1" cx="23.02" cy="23.77" r=".61"/><circle id="_Path_10" data-name="&lt;Path&gt;" class="cls-1" cx="19.8" cy="25.99" r=".61"/><circle id="_Path_11" data-name="&lt;Path&gt;" class="cls-1" cx="15.99" cy="27.18" r=".61"/><circle id="_Path_12" data-name="&lt;Path&gt;" class="cls-1" cx="11.85" cy="27.18" r=".61"/><circle id="_Path_13" data-name="&lt;Path&gt;" class="cls-1" cx="8.05" cy="25.97" r=".61"/><circle id="_Path_14" data-name="&lt;Path&gt;" class="cls-1" cx="4.83" cy="23.76" r=".61"/><circle id="_Path_15" data-name="&lt;Path&gt;" class="cls-1" cx="2.39" cy="20.71" r=".61"/><circle id="_Path_16" data-name="&lt;Path&gt;" class="cls-1" cx=".92" cy="17.03" r=".61"/><circle id="_Path_17" data-name="&lt;Path&gt;" class="cls-1" cx=".61" cy="12.92" r=".61"/><circle id="_Path_18" data-name="&lt;Path&gt;" class="cls-1" cx="1.53" cy="8.99" r=".61"/><circle id="_Path_19" data-name="&lt;Path&gt;" class="cls-1" cx="3.51" cy="5.61" r=".61"/><circle id="_Path_20" data-name="&lt;Path&gt;" class="cls-1" cx="6.37" cy="2.96" r=".61"/><circle id="_Path_21" data-name="&lt;Path&gt;" class="cls-1" cx="9.91" cy="1.23" r=".61"/><circle id="_Path_22" data-name="&lt;Path&gt;" class="cls-1" cx="13.95" cy=".61" r=".61"/></g></g></g><path id="_Compound_Path_" data-name="&lt;Compound Path&gt;" class="cls-2" d="M21.66 5.94a10.92 10.92 0 1 0 0 15.45 10.92 10.92 0 0 0 0-15.45zM18.79 16a1.77 1.77 0 0 1-2.51 2.51l-2.34-2.34-2.35 2.34A1.77 1.77 0 0 1 9.08 16l2.34-2.35-2.34-2.33a1.77 1.77 0 1 1 2.51-2.51l2.35 2.34 2.34-2.34a1.77 1.77 0 0 1 2.51 2.51l-2.34 2.34z"/></g></g></svg>