<svg xmlns="http://www.w3.org/2000/svg" viewBox="0 0 25.15 25.16"><defs><style>.cls-1{fill:none;stroke:#fff;stroke-miterlimit:10}.cls-2{fill:#fff}</style></defs><title>close-white</title><g id="Layer_2" data-name="Layer 2"><g id="Layer_1-2" data-name="Layer 1"><path id="_Path_" data-name="&lt;Path&gt;" class="cls-1" d="M17.46 14.89l-2.34-2.34 2.34-2.34a1.78 1.78 0 0 0-2.51-2.51L12.61 10l-2.35-2.3a1.78 1.78 0 1 0-2.51 2.51l2.34 2.34-2.34 2.34a1.78 1.78 0 0 0 2.51 2.51l2.34-2.34 2.34 2.34a1.78 1.78 0 0 0 2.51-2.51z"/><g id="_Group_" data-name="&lt;Group&gt;"><circle id="_Path_2" data-name="&lt;Path&gt;" class="cls-2" cx="21.15" cy="4.02" r=".55" transform="rotate(-45 21.158 4.026)"/><circle class="cls-2" cx="23.33" cy="6.99" r=".55" transform="rotate(-45 23.325 6.989)"/><circle class="cls-2" cx="24.48" cy="10.36" r=".55" transform="rotate(-45 24.473 10.363)"/><circle class="cls-2" cx="24.6" cy="13.88" r=".55" transform="rotate(-45 24.6 13.88)"/><circle class="cls-2" cx="23.7" cy="17.31" r=".55" transform="rotate(-45 23.701 17.313)"/><circle class="cls-2" cx="21.78" cy="20.4" r=".55" transform="rotate(-45 21.776 20.39)"/><circle class="cls-2" cx="18.95" cy="22.82" r=".55" transform="rotate(-45 18.949 22.811)"/><circle class="cls-2" cx="15.66" cy="24.22" r=".55" transform="rotate(-45 15.663 24.222)"/><circle class="cls-2" cx="12.16" cy="24.6" r=".55" transform="rotate(-45 12.152 24.606)"/><circle class="cls-2" cx="8.69" cy="23.96" r=".55" transform="rotate(-45 8.686 23.962)"/><circle class="cls-2" cx="5.49" cy="22.29" r=".55" transform="rotate(-45 5.491 22.286)"/><circle class="cls-2" cx="2.85" cy="19.65" r=".55" transform="rotate(-45 2.85 19.65)"/><circle class="cls-2" cx="1.19" cy="16.45" r=".55" transform="rotate(-45 1.192 16.446)"/><circle class="cls-2" cx=".55" cy="12.97" r=".55" transform="rotate(-45 .553 12.971)"/><circle class="cls-2" cx=".94" cy="9.47" r=".55" transform="rotate(-45 .942 9.47)"/><circle class="cls-2" cx="2.35" cy="6.18" r=".55" transform="rotate(-45 2.36 6.182)"/><circle class="cls-2" cx="4.78" cy="3.36" r=".55" transform="rotate(-45 4.773 3.363)"/><circle class="cls-2" cx="7.87" cy="1.44" r=".55" transform="rotate(-45 7.87 1.45)"/><circle class="cls-2" cx="11.3" cy=".55" r=".55" transform="rotate(-45 11.298 .55)"/><circle class="cls-2" cx="14.82" cy=".68" r=".55" transform="rotate(-45 14.822 .68)"/><circle class="cls-2" cx="18.18" cy="1.84" r=".55" transform="rotate(-45 18.185 1.847)"/><circle id="_Path_3" data-name="&lt;Path&gt;" class="cls-2" cx="21.15" cy="4.02" r=".55" transform="rotate(-45 21.158 4.026)"/></g></g></g></svg>