<svg xmlns="http://www.w3.org/2000/svg" viewBox="0 0 55.96 32.17"><defs><style>.cls-1,.cls-2,.cls-3{fill:none;stroke-linecap:round;stroke-linejoin:round;stroke-width:.75px}.cls-1{stroke:#f6f6f6}.cls-2,.cls-3{stroke:#2d96ce}.cls-3{stroke-dasharray:7.2 7.2}</style></defs><title>drag</title><g id="Layer_2" data-name="Layer 2"><g id="Layer_1-2" data-name="Layer 1"><g id="_Group_" data-name="&lt;Group&gt;"><path id="_Path_" data-name="&lt;Path&gt;" class="cls-1" d="M32.92 11.73V10a1.39 1.39 0 0 1 1.39-1.2 1.24 1.24 0 0 1 1.26 1.2v9.12a4.14 4.14 0 0 1-2 3.69V25c0 .51-.31.48-.31.48h-8.2a.4.4 0 0 1-.41-.48v-2.17A10 10 0 0 1 22 19.59a12.11 12.11 0 0 0-2.63-3.65c-.51-.51-.65-1.43 0-1.78a2 2 0 0 1 2.46.44 20.4 20.4 0 0 1 2.46 2.25v-7s0-1.74 1.67-1.74S27.29 10 27.29 10v2.46"/><path id="_Path_2" data-name="&lt;Path&gt;" class="cls-1" d="M30 11.22V9.48A1.3 1.3 0 0 1 31.47 8c1.66 0 1.47 1.81 1.47 1.81v.75"/><path id="_Path_3" data-name="&lt;Path&gt;" class="cls-1" d="M27.29 10.74V8.66s0-1.74 1.33-1.74S30 8.35 30 9v1.25"/></g><g id="_Group_2" data-name="&lt;Group&gt;"><g id="_Group_3" data-name="&lt;Group&gt;"><path id="_Path_4" data-name="&lt;Path&gt;" class="cls-2" d="M50.38.38a25.15 25.15 0 0 1 3 5.19"/><path id="_Path_5" data-name="&lt;Path&gt;" class="cls-3" d="M55.34 12.47a23.85 23.85 0 0 1 .25 3.4 25.83 25.83 0 0 1-1.1 7.3"/><path id="_Path_6" data-name="&lt;Path&gt;" class="cls-2" d="M53.27 26.55a27.82 27.82 0 0 1-2.89 5.24"/></g></g><g id="_Group_4" data-name="&lt;Group&gt;"><g id="_Group_5" data-name="&lt;Group&gt;"><path id="_Path_7" data-name="&lt;Path&gt;" class="cls-2" d="M5.59.38a25.14 25.14 0 0 0-3 5.19"/><path id="_Path_8" data-name="&lt;Path&gt;" class="cls-3" d="M.62 12.47a23.85 23.85 0 0 0-.25 3.4 25.83 25.83 0 0 0 1.1 7.3"/><path id="_Path_9" data-name="&lt;Path&gt;" class="cls-2" d="M2.7 26.55a27.82 27.82 0 0 0 2.89 5.24"/></g></g></g></g></svg>