<svg xmlns="http://www.w3.org/2000/svg" viewBox="0 0 62.54 62.37"><defs><style>.cls-1{fill:none;stroke:#2d96ce;stroke-linecap:round;stroke-linejoin:round;stroke-width:.5px;stroke-dasharray:13 11}.cls-2{fill:#ededed}</style></defs><title>icon-border</title><g id="Layer_2" data-name="Layer 2"><g id="Layer_2-2" data-name="Layer 2"><circle id="_Path_" data-name="&lt;Path&gt;" class="cls-1" cx="31.27" cy="30.67" r="24.25"/><g id="_Group_" data-name="&lt;Group&gt;"><circle id="_Path_2" data-name="&lt;Path&gt;" class="cls-2" cx="31.3" cy="1.37" r="1.37"/><circle id="_Path_3" data-name="&lt;Path&gt;" class="cls-2" cx="40.34" cy="2.78" r="1.37"/><circle id="_Path_4" data-name="&lt;Path&gt;" class="cls-2" cx="48.28" cy="6.67" r="1.37"/><circle id="_Path_5" data-name="&lt;Path&gt;" class="cls-2" cx="54.68" cy="12.64" r="1.37"/><circle id="_Path_6" data-name="&lt;Path&gt;" class="cls-2" cx="59.12" cy="20.24" r="1.37"/><circle id="_Path_7" data-name="&lt;Path&gt;" class="cls-2" cx="61.17" cy="29.05" r="1.37"/><circle id="_Path_8" data-name="&lt;Path&gt;" class="cls-2" cx="60.46" cy="38.27" r="1.37"/><circle id="_Path_9" data-name="&lt;Path&gt;" class="cls-2" cx="57.15" cy="46.52" r="1.37"/><circle id="_Path_10" data-name="&lt;Path&gt;" class="cls-2" cx="51.66" cy="53.35" r="1.37"/><circle id="_Path_11" data-name="&lt;Path&gt;" class="cls-2" cx="44.43" cy="58.31" r="1.37"/><circle id="_Path_12" data-name="&lt;Path&gt;" class="cls-2" cx="35.87" cy="61" r="1.37"/><circle id="_Path_13" data-name="&lt;Path&gt;" class="cls-2" cx="26.6" cy="60.99" r="1.37"/><circle id="_Path_14" data-name="&lt;Path&gt;" class="cls-2" cx="18.05" cy="58.29" r="1.37"/><circle id="_Path_15" data-name="&lt;Path&gt;" class="cls-2" cx="10.83" cy="53.31" r="1.37"/><circle id="_Path_16" data-name="&lt;Path&gt;" class="cls-2" cx="5.36" cy="46.47" r="1.37"/><circle id="_Path_17" data-name="&lt;Path&gt;" class="cls-2" cx="2.06" cy="38.21" r="1.37"/><circle id="_Path_18" data-name="&lt;Path&gt;" class="cls-2" cx="1.37" cy="28.99" r="1.37"/><circle id="_Path_19" data-name="&lt;Path&gt;" class="cls-2" cx="3.43" cy="20.18" r="1.37"/><circle id="_Path_20" data-name="&lt;Path&gt;" class="cls-2" cx="7.89" cy="12.59" r="1.37"/><circle id="_Path_21" data-name="&lt;Path&gt;" class="cls-2" cx="14.3" cy="6.64" r="1.37"/><circle id="_Path_22" data-name="&lt;Path&gt;" class="cls-2" cx="22.25" cy="2.76" r="1.37"/><circle id="_Path_23" data-name="&lt;Path&gt;" class="cls-2" cx="31.3" cy="1.37" r="1.37"/></g></g></g></svg>