<svg xmlns="http://www.w3.org/2000/svg" viewBox="0 0 27.87 27.79"><defs><style>.cls-1{fill:#1c8fcf}.cls-2{fill:#fff}</style></defs><title>tooltip-hover</title><g id="Layer_2" data-name="Layer 2"><g id="Layer_1-2" data-name="Layer 1"><path id="_Compound_Path_" data-name="&lt;Compound Path&gt;" class="cls-1" d="M13.93 3a10.93 10.93 0 1 0 10.93 11A10.93 10.93 0 0 0 13.93 3zM19 15.73h-3.29V19a1.78 1.78 0 1 1-3.55 0v-3.27H8.84a1.78 1.78 0 0 1 0-3.56h3.32V8.86a1.78 1.78 0 1 1 3.55 0v3.31H19a1.78 1.78 0 0 1 0 3.56z"/><g id="_Group_" data-name="&lt;Group&gt;"><circle id="_Path_" data-name="&lt;Path&gt;" class="cls-2" cx="13.95" cy=".61" r=".61"/><circle id="_Path_2" data-name="&lt;Path&gt;" class="cls-2" cx="17.98" cy="1.24" r=".61"/><circle id="_Path_3" data-name="&lt;Path&gt;" class="cls-2" cx="21.52" cy="2.97" r=".61"/><circle id="_Path_4" data-name="&lt;Path&gt;" class="cls-2" cx="24.37" cy="5.63" r=".61"/><circle id="_Path_5" data-name="&lt;Path&gt;" class="cls-2" cx="26.35" cy="9.02" r=".61"/><circle id="_Path_6" data-name="&lt;Path&gt;" class="cls-2" cx="27.26" cy="12.95" r=".61"/><circle id="_Path_7" data-name="&lt;Path&gt;" class="cls-2" cx="26.94" cy="17.05" r=".61"/><circle id="_Path_8" data-name="&lt;Path&gt;" class="cls-2" cx="25.47" cy="20.73" r=".61"/><circle id="_Path_9" data-name="&lt;Path&gt;" class="cls-2" cx="23.02" cy="23.77" r=".61"/><circle id="_Path_10" data-name="&lt;Path&gt;" class="cls-2" cx="19.8" cy="25.99" r=".61"/><circle id="_Path_11" data-name="&lt;Path&gt;" class="cls-2" cx="15.99" cy="27.18" r=".61"/><circle id="_Path_12" data-name="&lt;Path&gt;" class="cls-2" cx="11.85" cy="27.18" r=".61"/><circle id="_Path_13" data-name="&lt;Path&gt;" class="cls-2" cx="8.05" cy="25.97" r=".61"/><circle id="_Path_14" data-name="&lt;Path&gt;" class="cls-2" cx="4.83" cy="23.76" r=".61"/><circle id="_Path_15" data-name="&lt;Path&gt;" class="cls-2" cx="2.39" cy="20.71" r=".61"/><circle id="_Path_16" data-name="&lt;Path&gt;" class="cls-2" cx=".92" cy="17.03" r=".61"/><circle id="_Path_17" data-name="&lt;Path&gt;" class="cls-2" cx=".61" cy="12.92" r=".61"/><circle id="_Path_18" data-name="&lt;Path&gt;" class="cls-2" cx="1.53" cy="8.99" r=".61"/><circle id="_Path_19" data-name="&lt;Path&gt;" class="cls-2" cx="3.51" cy="5.61" r=".61"/><circle id="_Path_20" data-name="&lt;Path&gt;" class="cls-2" cx="6.37" cy="2.96" r=".61"/><circle id="_Path_21" data-name="&lt;Path&gt;" class="cls-2" cx="9.91" cy="1.23" r=".61"/><circle id="_Path_22" data-name="&lt;Path&gt;" class="cls-2" cx="13.95" cy=".61" r=".61"/></g></g></g></svg>