<svg xmlns="http://www.w3.org/2000/svg" viewBox="0 0 27.87 27.79"><defs><style>.cls-1,.cls-2{fill:none;stroke-width:.75px}.cls-1{stroke:#2d96ce;stroke-linecap:round;stroke-linejoin:round;stroke-dasharray:5 5}.cls-2{stroke:#f6f6f6;stroke-miterlimit:10}.cls-3{fill:#fff}</style></defs><title>tooltip</title><g id="Layer_2" data-name="Layer 2"><g id="Layer_1-2" data-name="Layer 1"><circle id="_Path_" data-name="&lt;Path&gt;" class="cls-1" cx="13.93" cy="13.95" r="10.93"/><path id="_Path_2" data-name="&lt;Path&gt;" class="cls-2" d="M19 12.18h-3.29V8.86a1.78 1.78 0 1 0-3.55 0v3.31H8.84a1.78 1.78 0 0 0 0 3.55h3.31V19a1.78 1.78 0 1 0 3.55 0v-3.27H19a1.78 1.78 0 0 0 0-3.55z"/><g id="_Group_" data-name="&lt;Group&gt;"><circle id="_Path_3" data-name="&lt;Path&gt;" class="cls-3" cx="13.95" cy=".61" r=".61"/><circle class="cls-3" cx="17.98" cy="1.24" r=".61"/><circle class="cls-3" cx="21.52" cy="2.97" r=".61"/><circle class="cls-3" cx="24.37" cy="5.63" r=".61"/><circle class="cls-3" cx="26.35" cy="9.02" r=".61"/><circle class="cls-3" cx="27.26" cy="12.95" r=".61"/><circle class="cls-3" cx="26.94" cy="17.05" r=".61"/><circle class="cls-3" cx="25.47" cy="20.73" r=".61"/><circle class="cls-3" cx="23.02" cy="23.77" r=".61"/><circle class="cls-3" cx="19.8" cy="25.99" r=".61"/><circle class="cls-3" cx="15.99" cy="27.18" r=".61"/><circle class="cls-3" cx="11.85" cy="27.18" r=".61"/><circle class="cls-3" cx="8.05" cy="25.97" r=".61"/><circle class="cls-3" cx="4.83" cy="23.76" r=".61"/><circle class="cls-3" cx="2.39" cy="20.71" r=".61"/><circle class="cls-3" cx=".92" cy="17.03" r=".61"/><circle class="cls-3" cx=".61" cy="12.92" r=".61"/><circle class="cls-3" cx="1.53" cy="8.99" r=".61"/><circle class="cls-3" cx="3.51" cy="5.61" r=".61"/><circle class="cls-3" cx="6.37" cy="2.96" r=".61"/><circle class="cls-3" cx="9.91" cy="1.23" r=".61"/><circle id="_Path_4" data-name="&lt;Path&gt;" class="cls-3" cx="13.95" cy=".61" r=".61"/></g></g></g></svg>