<svg xmlns="http://www.w3.org/2000/svg" viewBox="0 0 62.54 62.37"><defs><style>.cls-1,.cls-2,.cls-3,.cls-4{fill:none}.cls-1,.cls-2,.cls-3{stroke:#284875}.cls-1,.cls-3,.cls-4{stroke-linecap:round}.cls-1,.cls-2{stroke-miterlimit:10}.cls-3,.cls-4{stroke-linejoin:round}.cls-4{stroke:#2d96ce;stroke-width:.5px;stroke-dasharray:13 11}.cls-4,.cls-5{opacity:0}.cls-6{fill:#ededed}</style></defs><title>advancetrack</title><g id="Layer_2" data-name="Layer 2"><g id="Layer_2-2" data-name="Layer 2"><g id="_Group_" data-name="&lt;Group&gt;"><path id="_Path_" data-name="&lt;Path&gt;" class="cls-1" d="M41.36 46.36a33 33 0 0 1-1.88-11.17c0-6.81 1.91-12.9 4.92-17"/><path id="_Path_2" data-name="&lt;Path&gt;" class="cls-1" d="M24.39 12.95c-3.74 5.05-6.11 12.66-6.11 21.12a41 41 0 0 0 2.33 13.88"/><g id="_Group_2" data-name="&lt;Group&gt;"><path id="_Path_3" data-name="&lt;Path&gt;" class="cls-2" d="M32 44.1l-7.7-1.27a2.51 2.51 0 0 1-2.07-2.88l3.28-19.81c.58-3.49 3.55-3.88 7-3.31 3.49.58 6.18 1.9 5.61 5.4L34.86 42A2.51 2.51 0 0 1 32 44.1z"/><path id="_Path_4" data-name="&lt;Path&gt;" class="cls-3" d="M38.33 24.57l-.38 2.28"/><path id="_Path_5" data-name="&lt;Path&gt;" class="cls-3" d="M36.14 37.78l-.37 2.28"/><path id="_Path_6" data-name="&lt;Path&gt;" class="cls-3" d="M24.42 22.27l-.38 2.28"/><path id="_Path_7" data-name="&lt;Path&gt;" class="cls-3" d="M22.23 35.48l-.37 2.28"/><path id="_Path_8" data-name="&lt;Path&gt;" class="cls-3" d="M26.63 28.1l-.13-3.82s-.63-2.89 5.23-1.92S36 26.3 36 26.3l-1.21 3.09s-2.06-.56-4.1-.9a34.12 34.12 0 0 0-4.06-.39z"/><rect id="_Rectangle_" data-name="&lt;Rectangle&gt;" class="cls-3" x="27.1" y="31.29" width="5.94" height="3" rx="1.5" ry="1.5" transform="rotate(9.39 30.089 32.772)"/><path id="_Path_9" data-name="&lt;Path&gt;" class="cls-3" d="M26.07 43.15l-.26 1.59s.21.83 2 1.12 2.45-.26 2.45-.26l.27-1.6"/></g></g><circle id="_Path_10" data-name="&lt;Path&gt;" class="cls-4" cx="31.27" cy="30.67" r="24.25"/><g id="_Group_3" data-name="&lt;Group&gt;" class="cls-5"><circle id="_Path_11" data-name="&lt;Path&gt;" class="cls-6" cx="31.3" cy="1.37" r="1.37"/><circle class="cls-6" cx="40.34" cy="2.78" r="1.37"/><circle class="cls-6" cx="48.28" cy="6.67" r="1.37"/><circle class="cls-6" cx="54.68" cy="12.64" r="1.37"/><circle class="cls-6" cx="59.12" cy="20.24" r="1.37"/><circle class="cls-6" cx="61.17" cy="29.05" r="1.37"/><circle class="cls-6" cx="60.46" cy="38.27" r="1.37"/><circle class="cls-6" cx="57.15" cy="46.52" r="1.37"/><circle class="cls-6" cx="51.66" cy="53.35" r="1.37"/><circle class="cls-6" cx="44.43" cy="58.31" r="1.37"/><circle class="cls-6" cx="35.87" cy="61" r="1.37"/><circle class="cls-6" cx="26.6" cy="60.99" r="1.37"/><circle class="cls-6" cx="18.05" cy="58.29" r="1.37"/><circle class="cls-6" cx="10.83" cy="53.31" r="1.37"/><circle class="cls-6" cx="5.36" cy="46.47" r="1.37"/><circle class="cls-6" cx="2.06" cy="38.21" r="1.37"/><circle class="cls-6" cx="1.37" cy="28.99" r="1.37"/><circle class="cls-6" cx="3.43" cy="20.18" r="1.37"/><circle class="cls-6" cx="7.89" cy="12.59" r="1.37"/><circle class="cls-6" cx="14.3" cy="6.64" r="1.37"/><circle class="cls-6" cx="22.25" cy="2.76" r="1.37"/><circle id="_Path_12" data-name="&lt;Path&gt;" class="cls-6" cx="31.3" cy="1.37" r="1.37"/></g></g></g></svg>