<svg xmlns="http://www.w3.org/2000/svg" viewBox="0 0 62.54 62.37"><defs><style>.cls-1,.cls-4,.cls-5{fill:none}.cls-1{stroke:#2d96ce;stroke-width:.5px;stroke-dasharray:13 11}.cls-1,.cls-5{stroke-linecap:round;stroke-linejoin:round}.cls-1,.cls-2{opacity:0}.cls-3{fill:#ededed}.cls-4,.cls-5{stroke:#284875}.cls-4{stroke-miterlimit:10}</style></defs><title>airbags</title><g id="Layer_2" data-name="Layer 2"><g id="Layer_2-2" data-name="Layer 2"><circle id="_Path_" data-name="&lt;Path&gt;" class="cls-1" cx="31.27" cy="30.67" r="24.25"/><g id="_Group_" data-name="&lt;Group&gt;" class="cls-2"><circle id="_Path_2" data-name="&lt;Path&gt;" class="cls-3" cx="31.3" cy="1.37" r="1.37"/><circle class="cls-3" cx="40.34" cy="2.78" r="1.37"/><circle class="cls-3" cx="48.28" cy="6.67" r="1.37"/><circle class="cls-3" cx="54.68" cy="12.64" r="1.37"/><circle class="cls-3" cx="59.12" cy="20.24" r="1.37"/><circle class="cls-3" cx="61.17" cy="29.05" r="1.37"/><circle class="cls-3" cx="60.46" cy="38.27" r="1.37"/><circle class="cls-3" cx="57.15" cy="46.52" r="1.37"/><circle class="cls-3" cx="51.66" cy="53.35" r="1.37"/><circle class="cls-3" cx="44.43" cy="58.31" r="1.37"/><circle class="cls-3" cx="35.87" cy="61" r="1.37"/><circle class="cls-3" cx="26.6" cy="60.99" r="1.37"/><circle class="cls-3" cx="18.05" cy="58.29" r="1.37"/><circle class="cls-3" cx="10.83" cy="53.31" r="1.37"/><circle class="cls-3" cx="5.36" cy="46.47" r="1.37"/><circle class="cls-3" cx="2.06" cy="38.21" r="1.37"/><circle class="cls-3" cx="1.37" cy="28.99" r="1.37"/><circle class="cls-3" cx="3.43" cy="20.18" r="1.37"/><circle class="cls-3" cx="7.89" cy="12.59" r="1.37"/><circle class="cls-3" cx="14.3" cy="6.64" r="1.37"/><circle class="cls-3" cx="22.25" cy="2.76" r="1.37"/><circle id="_Path_3" data-name="&lt;Path&gt;" class="cls-3" cx="31.3" cy="1.37" r="1.37"/></g><g id="_Group_2" data-name="&lt;Group&gt;"><circle id="_Path_4" data-name="&lt;Path&gt;" class="cls-4" cx="27.66" cy="21.82" r="7.44"/><circle id="_Path_5" data-name="&lt;Path&gt;" class="cls-5" cx="41.64" cy="20.09" r="3.72"/><path id="_Path_6" data-name="&lt;Path&gt;" class="cls-5" d="M48.91 22.54L50 24s-3.29 2.09-4.16 2.61-.93 1-1.75 0c-.39-.47 0-1 .7-1.45s4.12-2.62 4.12-2.62z"/><path id="_Path_7" data-name="&lt;Path&gt;" class="cls-5" d="M34.62 31.66l2.25 6.09 5.26-8.57s.95-2.36-.59-3.31a2.46 2.46 0 0 0-3.66.59c-.95 1.24-3.08 5.02-3.26 5.2z"/><path id="_Path_8" data-name="&lt;Path&gt;" class="cls-5" d="M30.67 33.43s2.18 5.86 2.42 6.44l-6.79-2.36-4 5.38s-2.07 2.48-4.19.83-.12-4 .3-4.49 4.84-6 4.84-6S24.7 31 26.88 32s3.79 1.43 3.79 1.43z"/><path id="_Path_9" data-name="&lt;Path&gt;" class="cls-5" d="M36.46 44.61l1.25-1.22-4.26-10.86s-.41-1.21-1-.43c-.43.56-.46.67-.21 1.41s4.22 11.1 4.22 11.1z"/></g></g></g></svg>