<svg xmlns="http://www.w3.org/2000/svg" viewBox="0 0 62.54 62.37"><defs><style>.cls-1,.cls-2{fill:none;stroke-linecap:round;stroke-linejoin:round}.cls-1{stroke:#284875}.cls-2{stroke:#2d96ce;stroke-width:.5px;stroke-dasharray:13 11}.cls-2,.cls-3{opacity:0}.cls-4{fill:#ededed}</style></defs><title>cargo</title><g id="Layer_2" data-name="Layer 2"><g id="Layer_2-2" data-name="Layer 2"><g id="_Group_2" data-name="&lt;Group&gt;"><g id="_Group_3" data-name="&lt;Group&gt;"><g id="_Group_4" data-name="&lt;Group&gt;"><rect id="_Rectangle_" data-name="&lt;Rectangle&gt;" class="cls-1" x="15.49" y="25.04" width="7.93" height="7.98" rx="2.59" ry="2.59" transform="rotate(-69.63 19.453 29.027)"/><path id="_Path_2" data-name="&lt;Path&gt;" class="cls-1" d="M40.86 44.35l-14.45-7.74a3.34 3.34 0 0 1-2-4.28l1.18-3.18A1.94 1.94 0 0 1 28.11 28l20.46 7.6a1.94 1.94 0 0 1 1.14 2.48l-1.29 3.47s-5.34-3.18-7.56 2.8z"/><path id="_Path_3" data-name="&lt;Path&gt;" class="cls-1" d="M23.19 30.42l1.73.64"/></g><path id="_Path_5" data-name="&lt;Path&gt;" class="cls-1" d="M47.3 28.61a9.35 9.35 0 0 0-9.3-9.33h-3.18"/><path id="_Path_6" data-name="&lt;Path&gt;" class="cls-1" d="M37.93 22.46l-3.14-3.21 3.22-3.14"/></g></g><circle id="_Path_7" data-name="&lt;Path&gt;" class="cls-2" cx="31.27" cy="30.67" r="24.25"/><g id="_Group_5" data-name="&lt;Group&gt;" class="cls-3"><circle id="_Path_8" data-name="&lt;Path&gt;" class="cls-4" cx="31.3" cy="1.37" r="1.37"/><circle class="cls-4" cx="40.34" cy="2.78" r="1.37"/><circle class="cls-4" cx="48.28" cy="6.67" r="1.37"/><circle class="cls-4" cx="54.68" cy="12.64" r="1.37"/><circle class="cls-4" cx="59.12" cy="20.24" r="1.37"/><circle class="cls-4" cx="61.17" cy="29.05" r="1.37"/><circle class="cls-4" cx="60.46" cy="38.27" r="1.37"/><circle class="cls-4" cx="57.15" cy="46.52" r="1.37"/><circle class="cls-4" cx="51.66" cy="53.35" r="1.37"/><circle class="cls-4" cx="44.43" cy="58.31" r="1.37"/><circle class="cls-4" cx="35.87" cy="61" r="1.37"/><circle class="cls-4" cx="26.6" cy="60.99" r="1.37"/><circle class="cls-4" cx="18.05" cy="58.29" r="1.37"/><circle class="cls-4" cx="10.83" cy="53.31" r="1.37"/><circle class="cls-4" cx="5.36" cy="46.47" r="1.37"/><circle class="cls-4" cx="2.06" cy="38.21" r="1.37"/><circle class="cls-4" cx="1.37" cy="28.99" r="1.37"/><circle class="cls-4" cx="3.43" cy="20.18" r="1.37"/><circle class="cls-4" cx="7.89" cy="12.59" r="1.37"/><circle class="cls-4" cx="14.3" cy="6.64" r="1.37"/><circle class="cls-4" cx="22.25" cy="2.76" r="1.37"/><circle id="_Path_9" data-name="&lt;Path&gt;" class="cls-4" cx="31.3" cy="1.37" r="1.37"/></g></g></g></svg>