<svg xmlns="http://www.w3.org/2000/svg" viewBox="0 0 62.54 62.37"><defs><style>.cls-1,.cls-4{fill:none;stroke-linecap:round;stroke-linejoin:round}.cls-1{stroke:#2d96ce;stroke-width:.5px;stroke-dasharray:13 11}.cls-1,.cls-2{opacity:0}.cls-3{fill:#ededed}.cls-4{stroke:#284875}</style></defs><title>gps</title><g id="Layer_2" data-name="Layer 2"><g id="Layer_2-2" data-name="Layer 2"><circle id="_Path_" data-name="&lt;Path&gt;" class="cls-1" cx="31.27" cy="30.67" r="24.25"/><g id="_Group_" data-name="&lt;Group&gt;" class="cls-2"><circle id="_Path_2" data-name="&lt;Path&gt;" class="cls-3" cx="31.3" cy="1.37" r="1.37"/><circle class="cls-3" cx="40.34" cy="2.78" r="1.37"/><circle class="cls-3" cx="48.28" cy="6.67" r="1.37"/><circle class="cls-3" cx="54.68" cy="12.64" r="1.37"/><circle class="cls-3" cx="59.12" cy="20.24" r="1.37"/><circle class="cls-3" cx="61.17" cy="29.05" r="1.37"/><circle class="cls-3" cx="60.46" cy="38.27" r="1.37"/><circle class="cls-3" cx="57.15" cy="46.52" r="1.37"/><circle class="cls-3" cx="51.66" cy="53.35" r="1.37"/><circle class="cls-3" cx="44.43" cy="58.31" r="1.37"/><circle class="cls-3" cx="35.87" cy="61" r="1.37"/><circle class="cls-3" cx="26.6" cy="60.99" r="1.37"/><circle class="cls-3" cx="18.05" cy="58.29" r="1.37"/><circle class="cls-3" cx="10.83" cy="53.31" r="1.37"/><circle class="cls-3" cx="5.36" cy="46.47" r="1.37"/><circle class="cls-3" cx="2.06" cy="38.21" r="1.37"/><circle class="cls-3" cx="1.37" cy="28.99" r="1.37"/><circle class="cls-3" cx="3.43" cy="20.18" r="1.37"/><circle class="cls-3" cx="7.89" cy="12.59" r="1.37"/><circle class="cls-3" cx="14.3" cy="6.64" r="1.37"/><circle class="cls-3" cx="22.25" cy="2.76" r="1.37"/><circle id="_Path_3" data-name="&lt;Path&gt;" class="cls-3" cx="31.3" cy="1.37" r="1.37"/></g><path id="_Path_4" data-name="&lt;Path&gt;" class="cls-4" d="M41.11 19.65L32.84 43.7l-4.51-11.65-10.9-3.76 23.68-8.64z"/></g></g></svg>