<svg xmlns="http://www.w3.org/2000/svg" viewBox="0 0 62.54 62.37"><defs><style>.cls-1,.cls-3,.cls-4{fill:none}.cls-1,.cls-3{stroke:#284875;stroke-miterlimit:10}.cls-1,.cls-4{stroke-linecap:round}.cls-2{fill:#284875}.cls-4{stroke:#2d96ce;stroke-linejoin:round;stroke-width:.5px;stroke-dasharray:13 11}.cls-4,.cls-5{opacity:0}.cls-6{fill:#ededed}</style></defs><title>internal</title><g id="Layer_2" data-name="Layer 2"><g id="Layer_2-2" data-name="Layer 2"><g id="_Group_" data-name="&lt;Group&gt;"><path id="_Path_" data-name="&lt;Path&gt;" class="cls-1" d="M35.92 23.25h10.53a2.26 2.26 0 0 1 2.26 2.26 19.2 19.2 0 0 1 .7 2.94v3.33a23.24 23.24 0 0 1-.7 3.33 2.26 2.26 0 0 1-2.26 2.26H36.33"/><path id="_Path_2" data-name="&lt;Path&gt;" class="cls-1" d="M26.54 37.37h-10a2.26 2.26 0 0 1-2.26-2.26 26.32 26.32 0 0 1-.7-3.33v-3.24a26.07 26.07 0 0 1 .7-3 2.26 2.26 0 0 1 2.26-2.26h10.4"/><path id="_Path_3" data-name="&lt;Path&gt;" class="cls-1" d="M32.31 44.34h-1.68a1.75 1.75 0 0 1-1.75-1.75l-1-6.73a1.75 1.75 0 0 1 1.75-1.75h3.73a1.75 1.75 0 0 1 1.75 1.75l-1 6.73a1.75 1.75 0 0 1-1.8 1.75z"/><circle id="_Path_4" data-name="&lt;Path&gt;" class="cls-1" cx="20.47" cy="28.95" r="4.21"/><rect id="_Rectangle_" data-name="&lt;Rectangle&gt;" class="cls-1" x="28.24" y="21.28" width="6.45" height="4.76" rx="1.85" ry="1.85"/><rect id="_Rectangle_2" data-name="&lt;Rectangle&gt;" class="cls-1" x="28.44" y="27.6" width="6.06" height="1.87" rx=".51" ry=".51"/><path id="_Path_5" data-name="&lt;Path&gt;" class="cls-1" d="M25.61 31.78h23.8"/><path id="_Path_6" data-name="&lt;Path&gt;" class="cls-1" d="M13.54 31.78h2.08"/><circle id="_Path_7" data-name="&lt;Path&gt;" class="cls-2" cx="31.47" cy="36.39" r=".89"/><rect id="_Rectangle_3" data-name="&lt;Rectangle&gt;" class="cls-2" x="31.17" y="36.99" width=".6" height="3.35" rx=".3" ry=".3"/><rect id="_Rectangle_4" data-name="&lt;Rectangle&gt;" class="cls-3" x="18.1" y="27.06" width="4.73" height="3.43" rx="1.65" ry="1.65"/><path id="_Path_8" data-name="&lt;Path&gt;" class="cls-3" d="M22.65 27.6l1.87.23"/><path id="_Path_9" data-name="&lt;Path&gt;" class="cls-3" d="M22.83 29.33l1.85-.38"/><path id="_Path_10" data-name="&lt;Path&gt;" class="cls-3" d="M18.28 27.6l-1.87.23"/><path id="_Path_11" data-name="&lt;Path&gt;" class="cls-3" d="M18.1 29.47l-1.84-.52"/><path id="_Path_12" data-name="&lt;Path&gt;" class="cls-3" d="M20.04 33.16l-.62-2.67"/><path id="_Path_13" data-name="&lt;Path&gt;" class="cls-3" d="M20.9 33.16l.62-2.67"/><path id="_Path_14" data-name="&lt;Path&gt;" class="cls-1" d="M28.24 24.23h6.46"/></g><g id="_Group_2" data-name="&lt;Group&gt;"><path id="_Path_15" data-name="&lt;Path&gt;" class="cls-1" d="M35.92 23.25h10.53a2.26 2.26 0 0 1 2.26 2.26 19.2 19.2 0 0 1 .7 2.94v3.33a23.24 23.24 0 0 1-.7 3.33 2.26 2.26 0 0 1-2.26 2.26H36.33"/><path id="_Path_16" data-name="&lt;Path&gt;" class="cls-1" d="M26.54 37.37h-10a2.26 2.26 0 0 1-2.26-2.26 26.32 26.32 0 0 1-.7-3.33v-3.24a26.07 26.07 0 0 1 .7-3 2.26 2.26 0 0 1 2.26-2.26h10.4"/><path id="_Path_17" data-name="&lt;Path&gt;" class="cls-1" d="M32.31 44.34h-1.68a1.75 1.75 0 0 1-1.75-1.75l-1-6.73a1.75 1.75 0 0 1 1.75-1.75h3.73a1.75 1.75 0 0 1 1.75 1.75l-1 6.73a1.75 1.75 0 0 1-1.8 1.75z"/><circle id="_Path_18" data-name="&lt;Path&gt;" class="cls-1" cx="20.47" cy="28.95" r="4.21"/><rect id="_Rectangle_5" data-name="&lt;Rectangle&gt;" class="cls-1" x="28.24" y="21.28" width="6.45" height="4.76" rx="1.85" ry="1.85"/><rect id="_Rectangle_6" data-name="&lt;Rectangle&gt;" class="cls-1" x="28.44" y="27.6" width="6.06" height="1.87" rx=".51" ry=".51"/><path id="_Path_19" data-name="&lt;Path&gt;" class="cls-1" d="M25.61 31.78h23.8"/><path id="_Path_20" data-name="&lt;Path&gt;" class="cls-1" d="M13.54 31.78h2.08"/><circle id="_Path_21" data-name="&lt;Path&gt;" class="cls-2" cx="31.47" cy="36.39" r=".89"/><rect id="_Rectangle_7" data-name="&lt;Rectangle&gt;" class="cls-2" x="31.17" y="36.99" width=".6" height="3.35" rx=".3" ry=".3"/><rect id="_Rectangle_8" data-name="&lt;Rectangle&gt;" class="cls-3" x="18.1" y="27.06" width="4.73" height="3.43" rx="1.65" ry="1.65"/><path id="_Path_22" data-name="&lt;Path&gt;" class="cls-3" d="M22.65 27.6l1.87.23"/><path id="_Path_23" data-name="&lt;Path&gt;" class="cls-3" d="M22.83 29.33l1.85-.38"/><path id="_Path_24" data-name="&lt;Path&gt;" class="cls-3" d="M18.28 27.6l-1.87.23"/><path id="_Path_25" data-name="&lt;Path&gt;" class="cls-3" d="M18.1 29.47l-1.84-.52"/><path id="_Path_26" data-name="&lt;Path&gt;" class="cls-3" d="M20.04 33.16l-.62-2.67"/><path id="_Path_27" data-name="&lt;Path&gt;" class="cls-3" d="M20.9 33.16l.62-2.67"/><path id="_Path_28" data-name="&lt;Path&gt;" class="cls-1" d="M28.24 24.23h6.46"/></g><circle id="_Path_29" data-name="&lt;Path&gt;" class="cls-4" cx="31.27" cy="30.67" r="24.25"/><g id="_Group_3" data-name="&lt;Group&gt;" class="cls-5"><circle id="_Path_30" data-name="&lt;Path&gt;" class="cls-6" cx="31.3" cy="1.37" r="1.37"/><circle class="cls-6" cx="40.34" cy="2.78" r="1.37"/><circle class="cls-6" cx="48.28" cy="6.67" r="1.37"/><circle class="cls-6" cx="54.68" cy="12.64" r="1.37"/><circle class="cls-6" cx="59.12" cy="20.24" r="1.37"/><circle class="cls-6" cx="61.17" cy="29.05" r="1.37"/><circle class="cls-6" cx="60.46" cy="38.27" r="1.37"/><circle class="cls-6" cx="57.15" cy="46.52" r="1.37"/><circle class="cls-6" cx="51.66" cy="53.35" r="1.37"/><circle class="cls-6" cx="44.43" cy="58.31" r="1.37"/><circle class="cls-6" cx="35.87" cy="61" r="1.37"/><circle class="cls-6" cx="26.6" cy="60.99" r="1.37"/><circle class="cls-6" cx="18.05" cy="58.29" r="1.37"/><circle class="cls-6" cx="10.83" cy="53.31" r="1.37"/><circle class="cls-6" cx="5.36" cy="46.47" r="1.37"/><circle class="cls-6" cx="2.06" cy="38.21" r="1.37"/><circle class="cls-6" cx="1.37" cy="28.99" r="1.37"/><circle class="cls-6" cx="3.43" cy="20.18" r="1.37"/><circle class="cls-6" cx="7.89" cy="12.59" r="1.37"/><circle class="cls-6" cx="14.3" cy="6.64" r="1.37"/><circle class="cls-6" cx="22.25" cy="2.76" r="1.37"/><circle id="_Path_31" data-name="&lt;Path&gt;" class="cls-6" cx="31.3" cy="1.37" r="1.37"/></g></g></g></svg>