<svg xmlns="http://www.w3.org/2000/svg" viewBox="0 0 62.54 62.37"><defs><style>.cls-1,.cls-4{fill:none;stroke-linecap:round;stroke-linejoin:round}.cls-1{stroke:#2d96ce;stroke-width:.5px;stroke-dasharray:13 11}.cls-1,.cls-2{opacity:0}.cls-3{fill:#ededed}.cls-4{stroke:#284875}</style></defs><title>motor</title><g id="Layer_2" data-name="Layer 2"><g id="Layer_2-2" data-name="Layer 2"><circle id="_Path_" data-name="&lt;Path&gt;" class="cls-1" cx="31.27" cy="30.67" r="24.25"/><g id="_Group_" data-name="&lt;Group&gt;" class="cls-2"><circle id="_Path_2" data-name="&lt;Path&gt;" class="cls-3" cx="31.3" cy="1.37" r="1.37"/><circle class="cls-3" cx="40.34" cy="2.78" r="1.37"/><circle class="cls-3" cx="48.28" cy="6.67" r="1.37"/><circle class="cls-3" cx="54.68" cy="12.64" r="1.37"/><circle class="cls-3" cx="59.12" cy="20.24" r="1.37"/><circle class="cls-3" cx="61.17" cy="29.05" r="1.37"/><circle class="cls-3" cx="60.46" cy="38.27" r="1.37"/><circle class="cls-3" cx="57.15" cy="46.52" r="1.37"/><circle class="cls-3" cx="51.66" cy="53.35" r="1.37"/><circle class="cls-3" cx="44.43" cy="58.31" r="1.37"/><circle class="cls-3" cx="35.87" cy="61" r="1.37"/><circle class="cls-3" cx="26.6" cy="60.99" r="1.37"/><circle class="cls-3" cx="18.05" cy="58.29" r="1.37"/><circle class="cls-3" cx="10.83" cy="53.31" r="1.37"/><circle class="cls-3" cx="5.36" cy="46.47" r="1.37"/><circle class="cls-3" cx="2.06" cy="38.21" r="1.37"/><circle class="cls-3" cx="1.37" cy="28.99" r="1.37"/><circle class="cls-3" cx="3.43" cy="20.18" r="1.37"/><circle class="cls-3" cx="7.89" cy="12.59" r="1.37"/><circle class="cls-3" cx="14.3" cy="6.64" r="1.37"/><circle class="cls-3" cx="22.25" cy="2.76" r="1.37"/><circle id="_Path_3" data-name="&lt;Path&gt;" class="cls-3" cx="31.3" cy="1.37" r="1.37"/></g><g id="_Group_2" data-name="&lt;Group&gt;"><circle id="_Path_4" data-name="&lt;Path&gt;" class="cls-4" cx="34.54" cy="26.11" r="3.58"/><circle id="_Path_5" data-name="&lt;Path&gt;" class="cls-4" cx="26.42" cy="32.72" r="3.58"/><circle id="_Path_6" data-name="&lt;Path&gt;" class="cls-4" cx="31.47" cy="41.76" r="4.04"/><path id="_Path_7" data-name="&lt;Path&gt;" class="cls-4" d="M24.75 20.41v9.18"/><path id="_Path_8" data-name="&lt;Path&gt;" class="cls-4" d="M38.17 20.2l-.04 6.01"/><path id="_Path_9" data-name="&lt;Path&gt;" class="cls-4" d="M38.13 26.11l-2.88 16.96"/><path id="_Path_10" data-name="&lt;Path&gt;" class="cls-4" d="M28.07 43.87l-4.78-9.43"/><path id="_Path_11" data-name="&lt;Path&gt;" class="cls-4" d="M43.79 33.78l-6.66 5.79"/><path id="_Path_12" data-name="&lt;Path&gt;" class="cls-4" d="M35.91 39.64h4.8s.91 0 .91 1.56v3.33a1.22 1.22 0 0 1-1.22 1.27h-9"/><rect id="_Rectangle_" data-name="&lt;Rectangle&gt;" class="cls-4" x="23.64" y="15.36" width="15.65" height="5.35" rx="2.68" ry="2.68"/><path id="_Path_13" data-name="&lt;Path&gt;" class="cls-4" d="M24.35 36.61s-3.48 3.58-1.11 7a4.88 4.88 0 0 0 6 1.77"/><path id="_Path_14" data-name="&lt;Path&gt;" class="cls-4" d="M24.42 29.73l8.47-6.81"/><path id="_Path_15" data-name="&lt;Path&gt;" class="cls-4" d="M23.85 37.31l-4.65-3.93"/><path id="_Path_16" data-name="&lt;Path&gt;" class="cls-4" d="M24.5 27.07l-6.71 7.67-1.69-1.61"/><path id="_Path_17" data-name="&lt;Path&gt;" class="cls-4" d="M24.33 26.84l-2.22-1.61a2.24 2.24 0 0 0-2.66.59c-1.53 1.6-3.28 3.79-3.28 3.79a2.66 2.66 0 0 0-.06 3.56"/><path id="_Path_18" data-name="&lt;Path&gt;" class="cls-4" d="M38.15 27.07l6.71 7.67 1.68-1.61"/><path id="_Path_19" data-name="&lt;Path&gt;" class="cls-4" d="M38.31 26.84l2.22-1.61a2.24 2.24 0 0 1 2.66.59c1.53 1.6 3.28 3.79 3.28 3.79a2.66 2.66 0 0 1 .06 3.56"/><circle id="_Path_20" data-name="&lt;Path&gt;" class="cls-4" cx="31.47" cy="41.76" r="1.27"/><circle id="_Path_21" data-name="&lt;Path&gt;" class="cls-4" cx="34.54" cy="26.11" r="1.27"/><circle id="_Path_22" data-name="&lt;Path&gt;" class="cls-4" cx="26.42" cy="32.72" r="1.27"/></g><path id="_Path_23" data-name="&lt;Path&gt;" class="cls-4" d="M26.33 17.95h1.92"/><path id="_Path_24" data-name="&lt;Path&gt;" class="cls-4" d="M30.52 17.95h1.92"/><path id="_Path_25" data-name="&lt;Path&gt;" class="cls-4" d="M34.71 17.95h1.91"/></g></g></svg>