<?xml version="1.0" encoding="utf-8"?>
<!-- Generator: Adobe Illustrator 22.0.1, SVG Export Plug-In . SVG Version: 6.00 Build 0)  -->
<svg version="1.1" id="Camada_1" xmlns="http://www.w3.org/2000/svg" xmlns:xlink="http://www.w3.org/1999/xlink" x="0px" y="0px"
	 viewBox="0 0 62.5 62.4" style="enable-background:new 0 0 62.5 62.4;" xml:space="preserve">
<style type="text/css">
	.st0{display:none;}
	.st1{display:inline;}
	.st2{fill:none;stroke:#284875;stroke-linecap:round;stroke-linejoin:round;}
	
		.st3{fill:none;stroke:#2D96CE;stroke-width:0.5;stroke-linecap:round;stroke-linejoin:round;stroke-opacity:0;stroke-dasharray:13,11;}
	.st4{opacity:0;}
	.st5{fill:#EDEDED;}
</style>
<title>softtouch</title>
<g id="Layer_2" class="st0">
	<g id="Layer_2-2" class="st1">
		<g id="_Group_">
			<path id="_Path_" class="st2" d="M17.7,22.5l5.1-5.1"/>
			<path id="_Path_2" class="st2" d="M17.7,26.6l9.2-9.2"/>
			<path id="_Path_3" class="st2" d="M17.7,30.6l13.2-13.2"/>
			<path id="_Path_4" class="st2" d="M17.6,34.8l17.5-17.5"/>
			<path id="_Path_5" class="st2" d="M17.6,38.7l21.3-21.3"/>
			<path id="_Path_6" class="st2" d="M17.6,42.7L43,17.3"/>
			<path id="_Path_7" class="st2" d="M44.8,39.4l-5.1,5.1"/>
			<path id="_Path_8" class="st2" d="M44.8,35.3l-9.2,9.2"/>
			<path id="_Path_9" class="st2" d="M44.8,31.2L31.6,44.4"/>
			<path id="_Path_10" class="st2" d="M44.9,27L27.4,44.5"/>
			<path id="_Path_11" class="st2" d="M44.9,23.2L23.6,44.5"/>
			<path id="_Path_12" class="st2" d="M44.9,19.2L19.6,44.5"/>
		</g>
		<circle id="_Path_13" class="st3" cx="31.3" cy="30.7" r="24.3"/>
		<g id="_Group_2" class="st4">
			<circle id="_Path_14" class="st5" cx="31.3" cy="1.4" r="1.4"/>
			<circle class="st5" cx="40.3" cy="2.8" r="1.4"/>
			<circle class="st5" cx="48.3" cy="6.7" r="1.4"/>
			<circle class="st5" cx="54.7" cy="12.6" r="1.4"/>
			<circle class="st5" cx="59.1" cy="20.2" r="1.4"/>
			<circle class="st5" cx="61.2" cy="29.1" r="1.4"/>
			<circle class="st5" cx="60.5" cy="38.3" r="1.4"/>
			<circle class="st5" cx="57.2" cy="46.5" r="1.4"/>
			<circle class="st5" cx="51.7" cy="53.4" r="1.4"/>
			<circle class="st5" cx="44.4" cy="58.3" r="1.4"/>
			<circle class="st5" cx="35.9" cy="61" r="1.4"/>
			<circle class="st5" cx="26.6" cy="61" r="1.4"/>
			<circle class="st5" cx="18" cy="58.3" r="1.4"/>
			<circle class="st5" cx="10.8" cy="53.3" r="1.4"/>
			<circle class="st5" cx="5.4" cy="46.5" r="1.4"/>
			<circle class="st5" cx="2.1" cy="38.2" r="1.4"/>
			<circle class="st5" cx="1.4" cy="29" r="1.4"/>
			<circle class="st5" cx="3.4" cy="20.2" r="1.4"/>
			<circle class="st5" cx="7.9" cy="12.6" r="1.4"/>
			<circle class="st5" cx="14.3" cy="6.6" r="1.4"/>
			<circle class="st5" cx="22.3" cy="2.8" r="1.4"/>
			<circle id="_Path_15" class="st5" cx="31.3" cy="1.4" r="1.4"/>
		</g>
	</g>
</g>
<g>
	<path class="st2" d="M32.3,30.2c0.5,0,1-0.4,1-1V17c0-0.5-0.4-1-1-1c-0.5,0-1,0.4-1,1v12.3C31.3,29.8,31.7,30.2,32.3,30.2z"/>
	<path class="st2" d="M45,30.2c0,0,0-0.1,0-0.1c-0.4-4.9-3.6-9-8.1-10.8c0,0-0.1,0-0.1-0.1c-0.3-0.1-0.6-0.2-0.9-0.3c0,0,0,0-0.1,0
		c0,0,0,0,0,0c-0.6-0.2-1.2-0.3-1.9-0.4v2c5.1,0.8,9.1,5.3,9.1,10.7c0,6-4.8,10.8-10.8,10.8s-10.8-4.8-10.8-10.8
		c0-5.4,3.9-9.8,9.1-10.7v-2c-0.6,0.1-1.2,0.2-1.8,0.4c0,0,0,0,0,0c0,0,0,0-0.1,0c-0.3,0.1-0.6,0.2-0.9,0.3c0,0-0.1,0-0.1,0.1
		c-0.6,0.2-1.2,0.5-1.8,0.9c0,0,0,0,0,0c-3.5,2-5.9,5.7-6.3,9.9c0,0,0,0.1,0,0.1c0,0.3,0,0.6,0,1c0,7.1,5.7,12.8,12.8,12.8
		S45,38.3,45,31.2C45,30.9,45,30.6,45,30.2z"/>
</g>
</svg>
