<svg xmlns="http://www.w3.org/2000/svg" viewBox="0 0 62.54 62.37"><defs><style>.cls-1,.cls-2{fill:none}.cls-1{stroke:#284875;stroke-miterlimit:10}.cls-2{stroke:#2d96ce;stroke-linecap:round;stroke-linejoin:round;stroke-width:.5px;stroke-dasharray:13 11}.cls-2,.cls-3{opacity:0}.cls-4{fill:#ededed}</style></defs><title>seat</title><g id="Layer_2" data-name="Layer 2"><g id="Layer_2-2" data-name="Layer 2"><g id="_Group_" data-name="&lt;Group&gt;"><path id="_Path_" data-name="&lt;Path&gt;" class="cls-1" d="M39.18 24.94h-2.37c-1 0-1.88.62-1.88 1.37l-1.52 9.21c0 .75.85 1.37 1.88 1.37h5.41c1 0 1.88-.62 1.88-1.37l-1.52-9.21c0-.75-.84-1.37-1.88-1.37z"/><path id="_Path_2" data-name="&lt;Path&gt;" class="cls-1" d="M25.72 24.94h-2.37c-1 0-1.88.62-1.88 1.37l-1.52 9.21c0 .75.85 1.37 1.88 1.37h5.41c1 0 1.88-.62 1.88-1.37l-1.52-9.21c.01-.75-.84-1.37-1.88-1.37z"/><path id="_Path_3" data-name="&lt;Path&gt;" class="cls-1" d="M29.2 41.92h-9.33a1.21 1.21 0 0 1-1.21-1.21l.21-1.49A1.21 1.21 0 0 1 20.08 38H29a1.21 1.21 0 0 1 1.21 1.21l.22 1.49a1.21 1.21 0 0 1-1.23 1.22z"/><path id="_Path_4" data-name="&lt;Path&gt;" class="cls-1" d="M42.66 41.92h-9.33a1.21 1.21 0 0 1-1.21-1.21l.21-1.49A1.21 1.21 0 0 1 33.54 38h8.9a1.21 1.21 0 0 1 1.21 1.21l.22 1.49a1.21 1.21 0 0 1-1.21 1.22z"/><rect id="_Rectangle_" data-name="&lt;Rectangle&gt;" class="cls-1" x="35.18" y="19.72" width="5.67" height="4.23" rx="1.83" ry="1.83"/><rect id="_Rectangle_2" data-name="&lt;Rectangle&gt;" class="cls-1" x="21.7" y="19.72" width="5.67" height="4.23" rx="1.83" ry="1.83"/></g><circle id="_Path_5" data-name="&lt;Path&gt;" class="cls-2" cx="31.27" cy="30.67" r="24.25"/><g id="_Group_2" data-name="&lt;Group&gt;" class="cls-3"><circle id="_Path_6" data-name="&lt;Path&gt;" class="cls-4" cx="31.3" cy="1.37" r="1.37"/><circle class="cls-4" cx="40.34" cy="2.78" r="1.37"/><circle class="cls-4" cx="48.28" cy="6.67" r="1.37"/><circle class="cls-4" cx="54.68" cy="12.64" r="1.37"/><circle class="cls-4" cx="59.12" cy="20.24" r="1.37"/><circle class="cls-4" cx="61.17" cy="29.05" r="1.37"/><circle class="cls-4" cx="60.46" cy="38.27" r="1.37"/><circle class="cls-4" cx="57.15" cy="46.52" r="1.37"/><circle class="cls-4" cx="51.66" cy="53.35" r="1.37"/><circle class="cls-4" cx="44.43" cy="58.31" r="1.37"/><circle class="cls-4" cx="35.87" cy="61" r="1.37"/><circle class="cls-4" cx="26.6" cy="60.99" r="1.37"/><circle class="cls-4" cx="18.05" cy="58.29" r="1.37"/><circle class="cls-4" cx="10.83" cy="53.31" r="1.37"/><circle class="cls-4" cx="5.36" cy="46.47" r="1.37"/><circle class="cls-4" cx="2.06" cy="38.21" r="1.37"/><circle class="cls-4" cx="1.37" cy="28.99" r="1.37"/><circle class="cls-4" cx="3.43" cy="20.18" r="1.37"/><circle class="cls-4" cx="7.89" cy="12.59" r="1.37"/><circle class="cls-4" cx="14.3" cy="6.64" r="1.37"/><circle class="cls-4" cx="22.25" cy="2.76" r="1.37"/><circle id="_Path_7" data-name="&lt;Path&gt;" class="cls-4" cx="31.3" cy="1.37" r="1.37"/></g></g></g></svg>