<svg xmlns="http://www.w3.org/2000/svg" viewBox="0 0 62.54 62.37"><defs><style>.cls-1,.cls-2{fill:none;stroke-linecap:round;stroke-linejoin:round}.cls-1{stroke:#284875}.cls-2{stroke:#2d96ce;stroke-width:.5px;stroke-dasharray:13 11}.cls-2,.cls-3{opacity:0}.cls-4{fill:#ededed}</style></defs><title>skywindow</title><g id="Layer_2" data-name="Layer 2"><g id="Layer_2-2" data-name="Layer 2"><g id="_Group_" data-name="&lt;Group&gt;"><path id="_Path_" data-name="&lt;Path&gt;" class="cls-1" d="M45.67 40h-28.8a3.2 3.2 0 0 1-3.2-3.2l1.92-13.25a3.2 3.2 0 0 1 3.2-3.2h25a3.2 3.2 0 0 1 3.2 3.2l1.92 13.25a3.2 3.2 0 0 1-3.24 3.2z"/><circle id="_Path_2" data-name="&lt;Path&gt;" class="cls-1" cx="31.27" cy="30.19" r="3"/><g id="_Group_2" data-name="&lt;Group&gt;"><path id="_Path_3" data-name="&lt;Path&gt;" class="cls-1" d="M34.25 27.07l1.53-1.53"/><path id="_Path_4" data-name="&lt;Path&gt;" class="cls-1" d="M26.75 34.57l1.54-1.53"/></g><g id="_Group_3" data-name="&lt;Group&gt;"><path id="_Path_5" data-name="&lt;Path&gt;" class="cls-1" d="M35.48 30.05h2.17"/><path id="_Path_6" data-name="&lt;Path&gt;" class="cls-1" d="M24.88 30.05h2.17"/></g><g id="_Group_4" data-name="&lt;Group&gt;"><path id="_Path_7" data-name="&lt;Path&gt;" class="cls-1" d="M34.25 33.04l1.53 1.53"/><path id="_Path_8" data-name="&lt;Path&gt;" class="cls-1" d="M26.75 25.54l1.54 1.53"/></g><g id="_Group_5" data-name="&lt;Group&gt;"><path id="_Path_9" data-name="&lt;Path&gt;" class="cls-1" d="M31.27 34.27v2.17"/><path id="_Path_10" data-name="&lt;Path&gt;" class="cls-1" d="M31.27 23.67v2.17"/></g></g><circle id="_Path_11" data-name="&lt;Path&gt;" class="cls-2" cx="31.27" cy="30.67" r="24.25"/><g id="_Group_6" data-name="&lt;Group&gt;" class="cls-3"><circle id="_Path_12" data-name="&lt;Path&gt;" class="cls-4" cx="31.3" cy="1.37" r="1.37"/><circle class="cls-4" cx="40.34" cy="2.78" r="1.37"/><circle class="cls-4" cx="48.28" cy="6.67" r="1.37"/><circle class="cls-4" cx="54.68" cy="12.64" r="1.37"/><circle class="cls-4" cx="59.12" cy="20.24" r="1.37"/><circle class="cls-4" cx="61.17" cy="29.05" r="1.37"/><circle class="cls-4" cx="60.46" cy="38.27" r="1.37"/><circle class="cls-4" cx="57.15" cy="46.52" r="1.37"/><circle class="cls-4" cx="51.66" cy="53.35" r="1.37"/><circle class="cls-4" cx="44.43" cy="58.31" r="1.37"/><circle class="cls-4" cx="35.87" cy="61" r="1.37"/><circle class="cls-4" cx="26.6" cy="60.99" r="1.37"/><circle class="cls-4" cx="18.05" cy="58.29" r="1.37"/><circle class="cls-4" cx="10.83" cy="53.31" r="1.37"/><circle class="cls-4" cx="5.36" cy="46.47" r="1.37"/><circle class="cls-4" cx="2.06" cy="38.21" r="1.37"/><circle class="cls-4" cx="1.37" cy="28.99" r="1.37"/><circle class="cls-4" cx="3.43" cy="20.18" r="1.37"/><circle class="cls-4" cx="7.89" cy="12.59" r="1.37"/><circle class="cls-4" cx="14.3" cy="6.64" r="1.37"/><circle class="cls-4" cx="22.25" cy="2.76" r="1.37"/><circle id="_Path_13" data-name="&lt;Path&gt;" class="cls-4" cx="31.3" cy="1.37" r="1.37"/></g></g></g></svg>