<svg xmlns="http://www.w3.org/2000/svg" viewBox="0 0 62.54 62.37"><defs><style>.cls-1,.cls-2{fill:none;stroke:#284875}.cls-1{stroke-linecap:round;stroke-linejoin:round}.cls-2{stroke-miterlimit:10}.cls-3{opacity:0}.cls-4{fill:#ededed}</style></defs><title>steering-wheel</title><g id="Layer_2" data-name="Layer 2"><g id="Layer_2-2" data-name="Layer 2"><g id="_Group_" data-name="&lt;Group&gt;"><circle id="_Path_" data-name="&lt;Path&gt;" class="cls-1" cx="31.27" cy="30.31" r="19.4"/><path id="_Path_2" data-name="&lt;Path&gt;" class="cls-1" d="M28.4 45.91a16 16 0 0 0 5.13.1"/><path id="_Path_3" data-name="&lt;Path&gt;" class="cls-1" d="M37.29 45A15.86 15.86 0 0 0 44 20.91c-1-1.34-2.42-1.25-3.77-2.22s-2.7-3-4.38-3.56a15.94 15.94 0 0 0-10.28.35c-1.47.56-2.24 2.39-3.46 3.34s-2.91 1-3.81 2.29a15.86 15.86 0 0 0 6.6 23.73"/><path id="_Path_4" data-name="&lt;Path&gt;" class="cls-1" d="M46.46 25.74A38.25 38.25 0 0 0 18 25q-1 .36-1.93.78"/><path id="_Path_5" data-name="&lt;Path&gt;" class="cls-1" d="M23.46 34.33A37.82 37.82 0 0 1 18 32.76q-1-.36-1.93-.78"/><path id="_Path_6" data-name="&lt;Path&gt;" class="cls-1" d="M46.46 32a37.83 37.83 0 0 1-8 2.46"/><path id="_Path_7" data-name="&lt;Path&gt;" class="cls-1" d="M21.49 23.86a53 53 0 0 0 6.91 22"/><path id="_Path_8" data-name="&lt;Path&gt;" class="cls-1" d="M40.52 23.86a53 53 0 0 1-6.91 22"/><path id="_Path_9" data-name="&lt;Path&gt;" class="cls-1" d="M25.25 39.42a20 20 0 0 0 6 .86 20.69 20.69 0 0 0 5.41-.68"/><path id="_Path_10" data-name="&lt;Path&gt;" class="cls-1" d="M28.4 40.1s.46 4.38 1.51 6"/><path id="_Path_11" data-name="&lt;Path&gt;" class="cls-1" d="M33.53 40.17s-.45 4.31-1.5 5.93"/><path id="_Path_12" data-name="&lt;Path&gt;" class="cls-1" d="M27.41 44.11a6.48 6.48 0 0 0-2.47.75"/><path id="_Path_13" data-name="&lt;Path&gt;" class="cls-1" d="M34.59 44.11a6.48 6.48 0 0 1 2.47.75"/><ellipse id="_Path_14" data-name="&lt;Path&gt;" class="cls-2" cx="31.27" cy="27.62" rx="3.1" ry="1.42"/></g><g id="_Group_2" data-name="&lt;Group&gt;" class="cls-3"><circle id="_Path_15" data-name="&lt;Path&gt;" class="cls-4" cx="31.3" cy="1.37" r="1.37"/><circle class="cls-4" cx="40.34" cy="2.78" r="1.37"/><circle class="cls-4" cx="48.28" cy="6.67" r="1.37"/><circle class="cls-4" cx="54.68" cy="12.64" r="1.37"/><circle class="cls-4" cx="59.12" cy="20.24" r="1.37"/><circle class="cls-4" cx="61.17" cy="29.05" r="1.37"/><circle class="cls-4" cx="60.46" cy="38.27" r="1.37"/><circle class="cls-4" cx="57.15" cy="46.52" r="1.37"/><circle class="cls-4" cx="51.66" cy="53.35" r="1.37"/><circle class="cls-4" cx="44.43" cy="58.31" r="1.37"/><circle class="cls-4" cx="35.87" cy="61" r="1.37"/><circle class="cls-4" cx="26.6" cy="60.99" r="1.37"/><circle class="cls-4" cx="18.05" cy="58.29" r="1.37"/><circle class="cls-4" cx="10.83" cy="53.31" r="1.37"/><circle class="cls-4" cx="5.36" cy="46.47" r="1.37"/><circle class="cls-4" cx="2.06" cy="38.21" r="1.37"/><circle class="cls-4" cx="1.37" cy="28.99" r="1.37"/><circle class="cls-4" cx="3.43" cy="20.18" r="1.37"/><circle class="cls-4" cx="7.89" cy="12.59" r="1.37"/><circle class="cls-4" cx="14.3" cy="6.64" r="1.37"/><circle class="cls-4" cx="22.25" cy="2.76" r="1.37"/><circle id="_Path_16" data-name="&lt;Path&gt;" class="cls-4" cx="31.3" cy="1.37" r="1.37"/></g></g></g></svg>