<svg xmlns="http://www.w3.org/2000/svg" viewBox="0 0 62.54 62.37"><defs><style>.cls-1,.cls-2{fill:none;stroke-linecap:round;stroke-linejoin:round}.cls-1{stroke:#2d96ce;stroke-width:.5px;stroke-dasharray:13 11}.cls-1,.cls-4{opacity:0}.cls-2{stroke:#284875}.cls-3{fill:#284875}.cls-5{fill:#ededed}</style></defs><title>sync</title><g id="Layer_2" data-name="Layer 2"><g id="Layer_2-2" data-name="Layer 2"><circle id="_Path_" data-name="&lt;Path&gt;" class="cls-1" cx="31.27" cy="30.67" r="24.25"/><g id="_Group_" data-name="&lt;Group&gt;"><g id="_Group_2" data-name="&lt;Group&gt;"><path id="_Path_2" data-name="&lt;Path&gt;" class="cls-2" d="M16.54 36.59V39A2.44 2.44 0 0 0 19 41.43h3"/><path id="_Path_5" data-name="&lt;Path&gt;" class="cls-2" d="M22 19.92h-3a2.44 2.44 0 0 0-2.44 2.44"/><path id="_Path_8" data-name="&lt;Path&gt;" class="cls-2" d="M46 22.36a2.44 2.44 0 0 0-2.44-2.44h-2.9"/><path id="_Path_9" data-name="&lt;Path&gt;" class="cls-2" d="M45.99 38.99v-2.4"/><path id="_Path_10" data-name="&lt;Path&gt;" class="cls-2" d="M45.99 24.54v-2.4"/><path id="_Path_11" data-name="&lt;Path&gt;" class="cls-2" d="M40.65 41.43h2.9A2.44 2.44 0 0 0 46 39"/><path id="_Path_14" data-name="&lt;Path&gt;" class="cls-2" d="M16.54 24.54v-2.4"/></g><g id="_Group_3" data-name="&lt;Group&gt;"><path id="_Compound_Path_" data-name="&lt;Compound Path&gt;" class="cls-3" d="M26.56 33c0-1.09.1-2 1.19-2.36-.84-.35-.94-1.07-.94-1.93 0-1.14.46-2.16 2.66-2.16s2.65 1 2.65 2.16c0 .86-.12 1.61-.95 1.93 1.14.37 1.21 1.27 1.21 2.36 0 1.38-.36 2.63-2.92 2.63s-2.9-1.29-2.9-2.63zm4.44-.19c0-.95-.26-1.56-1.55-1.56s-1.55.61-1.55 1.56.25 1.61 1.55 1.61S31 33.77 31 32.81zm-.2-3.91c0-.77-.28-1.21-1.33-1.21s-1.34.44-1.34 1.21.29 1.24 1.34 1.24 1.33-.48 1.33-1.24z"/><path id="_Compound_Path_2" data-name="&lt;Compound Path&gt;" class="cls-3" d="M33.52 29.27c.59-.32.71-.48.71-.91h-.71v-1.75h1.55v1.55c0 1-.19 1.29-1.19 1.77zm2.24 0c.59-.32.7-.48.7-.91h-.71v-1.75h1.55v1.55c0 1-.18 1.29-1.19 1.77z"/></g><path id="_Path_15" data-name="&lt;Path&gt;" class="cls-2" d="M45.4 20.79l-6.41 4.52"/><path id="_Path_16" data-name="&lt;Path&gt;" class="cls-2" d="M24.55 35.49l-7.33 5.17"/></g><g id="_Group_4" data-name="&lt;Group&gt;" class="cls-4"><circle id="_Path_17" data-name="&lt;Path&gt;" class="cls-5" cx="31.3" cy="1.37" r="1.37"/><circle class="cls-5" cx="40.34" cy="2.78" r="1.37"/><circle class="cls-5" cx="48.28" cy="6.67" r="1.37"/><circle class="cls-5" cx="54.68" cy="12.64" r="1.37"/><circle class="cls-5" cx="59.12" cy="20.24" r="1.37"/><circle class="cls-5" cx="61.17" cy="29.05" r="1.37"/><circle class="cls-5" cx="60.46" cy="38.27" r="1.37"/><circle class="cls-5" cx="57.15" cy="46.52" r="1.37"/><circle class="cls-5" cx="51.66" cy="53.35" r="1.37"/><circle class="cls-5" cx="44.43" cy="58.31" r="1.37"/><circle class="cls-5" cx="35.87" cy="61" r="1.37"/><circle class="cls-5" cx="26.6" cy="60.99" r="1.37"/><circle class="cls-5" cx="18.05" cy="58.29" r="1.37"/><circle class="cls-5" cx="10.83" cy="53.31" r="1.37"/><circle class="cls-5" cx="5.36" cy="46.47" r="1.37"/><circle class="cls-5" cx="2.06" cy="38.21" r="1.37"/><circle class="cls-5" cx="1.37" cy="28.99" r="1.37"/><circle class="cls-5" cx="3.43" cy="20.18" r="1.37"/><circle class="cls-5" cx="7.89" cy="12.59" r="1.37"/><circle class="cls-5" cx="14.3" cy="6.64" r="1.37"/><circle class="cls-5" cx="22.25" cy="2.76" r="1.37"/><circle id="_Path_18" data-name="&lt;Path&gt;" class="cls-5" cx="31.3" cy="1.37" r="1.37"/></g></g></g></svg>