<?xml version="1.0" encoding="utf-8"?>
<!-- Generator: Adobe Illustrator 22.0.1, SVG Export Plug-In . SVG Version: 6.00 Build 0)  -->
<svg version="1.1" id="Camada_1" xmlns="http://www.w3.org/2000/svg" xmlns:xlink="http://www.w3.org/1999/xlink" x="0px" y="0px"
	 viewBox="0 0 62.5 62.4" style="enable-background:new 0 0 62.5 62.4;" xml:space="preserve">
<style type="text/css">
	
		.st0{fill:none;stroke:#2D96CE;stroke-width:0.5;stroke-linecap:round;stroke-linejoin:round;stroke-opacity:0;stroke-dasharray:13,11;}
	.st1{fill:none;stroke:#284875;stroke-linecap:round;stroke-linejoin:round;}
	.st2{fill:#284875;}
	.st3{opacity:0;}
	.st4{fill:#EDEDED;}
	.st5{font-family:'Myriad-Roman';}
	.st6{font-size:13.5744px;}
	.st7{letter-spacing:-1;}
</style>
<title>sync</title>
<g id="Layer_2">
	<g id="Layer_2-2">
		<circle id="_Path_" class="st0" cx="31.3" cy="30.7" r="24.3"/>
		<g id="_Group_">
			<g id="_Group_2">
				<path id="_Path_2" class="st1" d="M16.6,36.6V39c0,1.3,1.1,2.4,2.4,2.4c0,0,0,0,0,0h3"/>
				<path id="_Path_5" class="st1" d="M22,19.9h-3c-1.3,0-2.4,1.1-2.4,2.4l0,0"/>
				<path id="_Path_8" class="st1" d="M46,22.4c0-1.3-1.1-2.4-2.4-2.4h-2.9"/>
				<path id="_Path_9" class="st1" d="M46,39v-2.4"/>
				<path id="_Path_10" class="st1" d="M46,24.5v-2.4"/>
				<path id="_Path_11" class="st1" d="M40.7,41.4h2.9c1.3,0,2.4-1.1,2.4-2.4c0,0,0,0,0,0"/>
				<path id="_Path_14" class="st1" d="M16.6,24.5v-2.4"/>
			</g>
			<g id="_Group_3">
				<path id="_Compound_Path_2" class="st2" d="M38.2,28.4c0.5-0.3,0.6-0.4,0.6-0.8h-0.6v-1.5h1.3v1.3c0,0.9-0.2,1.1-1,1.5
					L38.2,28.4z M40.1,28.4c0.5-0.3,0.6-0.4,0.6-0.8h-0.6v-1.5h1.3v1.3c0,0.9-0.2,1.1-1,1.5L40.1,28.4z"/>
			</g>
			<path id="_Path_15" class="st1" d="M45.4,20.8l-4.7,3.3"/>
			<path id="_Path_16" class="st1" d="M22.3,37.1l-5,3.5"/>
		</g>
		<g id="_Group_4" class="st3">
			<circle id="_Path_17" class="st4" cx="31.3" cy="1.4" r="1.4"/>
			<circle class="st4" cx="40.4" cy="2.8" r="1.4"/>
			<circle class="st4" cx="48.3" cy="6.7" r="1.4"/>
			<circle class="st4" cx="54.7" cy="12.6" r="1.4"/>
			<circle class="st4" cx="59.1" cy="20.2" r="1.4"/>
			<circle class="st4" cx="61.2" cy="29" r="1.4"/>
			<circle class="st4" cx="60.5" cy="38.3" r="1.4"/>
			<circle class="st4" cx="57.2" cy="46.5" r="1.4"/>
			<circle class="st4" cx="51.7" cy="53.3" r="1.4"/>
			<circle class="st4" cx="44.5" cy="58.3" r="1.4"/>
			<circle class="st4" cx="35.9" cy="61" r="1.4"/>
			<circle class="st4" cx="26.6" cy="61" r="1.4"/>
			<circle class="st4" cx="18.1" cy="58.3" r="1.4"/>
			<circle class="st4" cx="10.9" cy="53.3" r="1.4"/>
			<circle class="st4" cx="5.4" cy="46.5" r="1.4"/>
			<circle class="st4" cx="2.1" cy="38.2" r="1.4"/>
			<circle class="st4" cx="1.4" cy="29" r="1.4"/>
			<circle class="st4" cx="3.5" cy="20.2" r="1.4"/>
			<circle class="st4" cx="7.9" cy="12.6" r="1.4"/>
			<circle class="st4" cx="14.3" cy="6.6" r="1.4"/>
			<circle class="st4" cx="22.3" cy="2.8" r="1.4"/>
			<circle id="_Path_18" class="st4" cx="31.3" cy="1.4" r="1.4"/>
		</g>
	</g>
</g>
<text transform="matrix(1 0 0 1 22.25 36.9013)" class="st2 st5 st6 st7">6,5</text>
</svg>
