<?xml version="1.0" encoding="utf-8"?>
<!-- Generator: Adobe Illustrator 22.0.1, SVG Export Plug-In . SVG Version: 6.00 Build 0)  -->
<svg version="1.1" id="Camada_1" xmlns="http://www.w3.org/2000/svg" xmlns:xlink="http://www.w3.org/1999/xlink" x="0px" y="0px"
	 viewBox="0 0 62.5 62.4" style="enable-background:new 0 0 62.5 62.4;" xml:space="preserve">
<style type="text/css">
	.st0{display:none;}
	.st1{display:inline;}
	
		.st2{fill:none;stroke:#2D96CE;stroke-width:0.5;stroke-linecap:round;stroke-linejoin:round;stroke-opacity:0;stroke-dasharray:13,11;}
	.st3{fill:none;stroke:#284875;stroke-linecap:round;stroke-linejoin:round;}
	.st4{fill:#284875;}
	.st5{opacity:0;}
	.st6{fill:#EDEDED;}
</style>
<title>sync</title>
<g id="Layer_2" class="st0">
	<g id="Layer_2-2" class="st1">
		<circle id="_Path_" class="st2" cx="31.3" cy="30.7" r="24.3"/>
		<g id="_Group_">
			<g id="_Group_2">
				<path id="_Path_2" class="st3" d="M16.5,36.6V39c0,1.3,1.1,2.4,2.4,2.4c0,0,0,0,0,0h3"/>
				<path id="_Path_5" class="st3" d="M22,19.9h-3c-1.3,0-2.4,1.1-2.4,2.4l0,0"/>
				<path id="_Path_8" class="st3" d="M46,22.4c0-1.3-1.1-2.4-2.4-2.4h-2.9"/>
				<path id="_Path_9" class="st3" d="M46,39v-2.4"/>
				<path id="_Path_10" class="st3" d="M46,24.5v-2.4"/>
				<path id="_Path_11" class="st3" d="M40.7,41.4h2.9c1.3,0,2.4-1.1,2.4-2.4c0,0,0,0,0,0"/>
				<path id="_Path_14" class="st3" d="M16.5,24.5v-2.4"/>
			</g>
			<g id="_Group_3">
				<path id="_Compound_Path_" class="st4" d="M26.6,33c0-1.1,0.1-2,1.2-2.4c-0.8-0.4-0.9-1.1-0.9-1.9c0-1.1,0.5-2.2,2.7-2.2
					s2.6,1,2.6,2.2c0,0.9-0.1,1.6-1,1.9c1.1,0.4,1.2,1.3,1.2,2.4c0,1.4-0.4,2.6-2.9,2.6S26.6,34.3,26.6,33z M31,32.8
					c0-1-0.3-1.6-1.5-1.6s-1.5,0.6-1.5,1.6c0,1,0.3,1.6,1.5,1.6S31,33.8,31,32.8z M30.8,28.9c0-0.8-0.3-1.2-1.3-1.2
					s-1.3,0.4-1.3,1.2s0.3,1.2,1.3,1.2S30.8,29.7,30.8,28.9z"/>
				<path id="_Compound_Path_2" class="st4" d="M33.5,29.3c0.6-0.3,0.7-0.5,0.7-0.9h-0.7v-1.8h1.5v1.5c0,1-0.2,1.3-1.2,1.8
					L33.5,29.3z M35.8,29.3c0.6-0.3,0.7-0.5,0.7-0.9h-0.7v-1.8h1.5v1.5c0,1-0.2,1.3-1.2,1.8L35.8,29.3z"/>
			</g>
			<path id="_Path_15" class="st3" d="M45.4,20.8L39,25.3"/>
			<path id="_Path_16" class="st3" d="M24.5,35.5l-7.3,5.2"/>
		</g>
		<g id="_Group_4" class="st5">
			<circle id="_Path_17" class="st6" cx="31.3" cy="1.4" r="1.4"/>
			<circle class="st6" cx="40.3" cy="2.8" r="1.4"/>
			<circle class="st6" cx="48.3" cy="6.7" r="1.4"/>
			<circle class="st6" cx="54.7" cy="12.6" r="1.4"/>
			<circle class="st6" cx="59.1" cy="20.2" r="1.4"/>
			<circle class="st6" cx="61.2" cy="29.1" r="1.4"/>
			<circle class="st6" cx="60.5" cy="38.3" r="1.4"/>
			<circle class="st6" cx="57.2" cy="46.5" r="1.4"/>
			<circle class="st6" cx="51.7" cy="53.4" r="1.4"/>
			<circle class="st6" cx="44.4" cy="58.3" r="1.4"/>
			<circle class="st6" cx="35.9" cy="61" r="1.4"/>
			<circle class="st6" cx="26.6" cy="61" r="1.4"/>
			<circle class="st6" cx="18" cy="58.3" r="1.4"/>
			<circle class="st6" cx="10.8" cy="53.3" r="1.4"/>
			<circle class="st6" cx="5.4" cy="46.5" r="1.4"/>
			<circle class="st6" cx="2.1" cy="38.2" r="1.4"/>
			<circle class="st6" cx="1.4" cy="29" r="1.4"/>
			<circle class="st6" cx="3.4" cy="20.2" r="1.4"/>
			<circle class="st6" cx="7.9" cy="12.6" r="1.4"/>
			<circle class="st6" cx="14.3" cy="6.6" r="1.4"/>
			<circle class="st6" cx="22.3" cy="2.8" r="1.4"/>
			<circle id="_Path_18" class="st6" cx="31.3" cy="1.4" r="1.4"/>
		</g>
	</g>
</g>
<g id="surface1">
	<path class="st3" d="M25.2,22.6c-3.7,0-6.1,1.4-7.5,2.9c-1.4,1.4-2,2.9-2,2.9l0,0l0.1-0.3H13l-0.9,5.5H15l0-0.3
		c0,0.5,0.1,1.7,0.9,2.8c1,1.5,3.2,3,7.4,3h14.9l0.3-1.4h2.6c3.3,0,5.5-2.6,5.5-5.4c0-0.7-0.2-1.3-0.5-1.8c0.3-0.6,0.5-1.2,0.5-2
		c0-2.3-1.9-4.5-4.8-4.5h-0.2l0.3-1.4H25.2z M25.2,24h15l-0.3,1.4h1.9c2.1,0,3.4,1.6,3.4,3.2c0,0.7-0.2,1.2-0.5,1.6l-0.3,0.4
		l0.3,0.4c0.3,0.4,0.5,0.8,0.5,1.3c0,2.1-1.5,4-4.1,4h-3.7l-0.3,1.4H23.3c-3.9,0-5.5-1.2-6.3-2.4s-0.7-2.3-0.7-2.3v0l0-0.8h-2.6
		l0.5-2.7h2.7l0.2-0.6c0,0,0.4-1.2,1.6-2.4C19.9,25.3,21.9,24,25.2,24z M32.2,26.8c-2.1,0-3.4,1.2-3.4,2.6c0,2.6,3.8,2,3.8,3.1
		c0,0.6-0.7,0.8-1.1,0.8c-1.1,0-1.1-0.6-1.1-1H28c-0.1,2,1.5,2.7,3.3,2.7c2.7,0,3.6-1.5,3.6-2.7c0-2.8-3.8-2.1-3.8-3.1
		c0-0.4,0.4-0.6,0.9-0.6c0.5,0,1.2,0.2,1,1h2.3C35.3,29.5,35.8,26.8,32.2,26.8z M20.3,26.8c0,0-1.2,5.3-1.2,5.5c0,0.2,0,2.7,3.5,2.7
		c4.2,0,4.3-3.4,4.3-3.4l1.1-4.8h-2.6l-1,4.5c0,0-0.2,1.7-1.6,1.7c-1.5,0-0.8-1.9-0.8-1.9l0.9-4.4H20.3z M37,26.8L35.3,35h5.1
		c0.3,0,3.4,0,3.4-2.7c0-1.4-1.7-1.6-1.7-1.6s1.7-0.4,1.7-2.2c0-1.6-2-1.8-2.7-1.8H37z M39,28.8h1.5c0,0,0.6,0.1,0.6,0.7
		c0,0.6-0.6,0.7-0.7,0.7h-1.6L39,28.8z M38.4,31.6h1.5c0,0,1-0.1,1,0.7c0,0.8-0.9,0.7-1,0.7h-1.7L38.4,31.6z"/>
</g>
</svg>
