<?xml version="1.0" encoding="iso-8859-1"?>
<!-- Generator: Adobe Illustrator 19.0.0, SVG Export Plug-In . SVG Version: 6.00 Build 0)  -->
<svg version="1.1" id="Capa_1" xmlns="http://www.w3.org/2000/svg" xmlns:xlink="http://www.w3.org/1999/xlink" x="0px" y="0px"
	 viewBox="0 0 470 470" style="enable-background:new 0 0 470 470;" xml:space="preserve">
<g>
	<path d="M235,395c-12.407,0-22.5,10.094-22.5,22.5S222.593,440,235,440s22.5-10.094,22.5-22.5S247.407,395,235,395z M235,425
		c-4.136,0-7.5-3.364-7.5-7.5s3.364-7.5,7.5-7.5s7.5,3.364,7.5,7.5S239.136,425,235,425z"/>
	<path d="M329.091,0H140.909C114.216,0,92.5,21.716,92.5,48.409v373.182c0,26.693,21.716,48.409,48.409,48.409h188.182
		c26.693,0,48.409-21.716,48.409-48.409V48.409C377.5,21.716,355.784,0,329.091,0z M107.5,75h255v290h-255V75z M140.909,15h188.182
		c18.422,0,33.409,14.987,33.409,33.409V60h-255V48.409C107.5,29.987,122.487,15,140.909,15z M329.091,455H140.909
		c-18.422,0-33.409-14.987-33.409-33.409V380h255v41.591C362.5,440.013,347.513,455,329.091,455z"/>
	<path d="M203.361,45h63.278c4.142,0,7.5-3.357,7.5-7.5s-3.358-7.5-7.5-7.5h-63.278c-4.142,0-7.5,3.357-7.5,7.5
		S199.219,45,203.361,45z"/>
	<path d="M327.333,167.5c-4.142,0-7.5,3.357-7.5,7.5v30c0,36.192-23.017,68.438-57.275,80.24c-3.916,1.349-5.997,5.617-4.648,9.533
		c1.07,3.107,3.979,5.06,7.09,5.06c0.81,0,1.634-0.132,2.443-0.411c40.308-13.886,67.39-51.831,67.39-94.422v-30
		C334.833,170.857,331.476,167.5,327.333,167.5z"/>
	<path d="M274,335h-31.5v-37.667c0-4.143-3.358-7.5-7.5-7.5c-46.777,0-84.833-38.056-84.833-84.833v-30c0-4.143-3.358-7.5-7.5-7.5
		s-7.5,3.357-7.5,7.5v30c0,52.524,40.775,95.706,92.333,99.554V335H196c-4.142,0-7.5,3.357-7.5,7.5s3.358,7.5,7.5,7.5h78
		c4.142,0,7.5-3.357,7.5-7.5S278.142,335,274,335z"/>
	<path d="M215.361,188.17c-3.379,2.396-4.177,7.077-1.782,10.456c4.922,6.944,12.929,11.091,21.418,11.091
		c8.539,0,16.572-4.184,21.49-11.191c2.379-3.391,1.56-8.068-1.831-10.447c-3.39-2.379-8.067-1.56-10.447,1.83
		c-2.113,3.011-5.557,4.809-9.212,4.809c-3.634,0-7.066-1.781-9.181-4.765C223.422,186.573,218.74,185.776,215.361,188.17z"/>
	<circle cx="217.667" cy="166.116" r="7.5"/>
	<circle cx="252.333" cy="166.116" r="7.5"/>
	<path d="M235,274.833c38.506,0,69.833-31.327,69.833-69.833v-45.167C304.833,121.327,273.506,90,235,90
		s-69.833,31.327-69.833,69.833V205C165.167,243.506,196.494,274.833,235,274.833z M180.167,159.833
		C180.167,129.598,204.765,105,235,105s54.833,24.598,54.833,54.833V205c0,30.235-24.598,54.833-54.833,54.833
		S180.167,235.235,180.167,205V159.833z"/>
</g>
<g>
</g>
<g>
</g>
<g>
</g>
<g>
</g>
<g>
</g>
<g>
</g>
<g>
</g>
<g>
</g>
<g>
</g>
<g>
</g>
<g>
</g>
<g>
</g>
<g>
</g>
<g>
</g>
<g>
</g>
</svg>
