<?xml version="1.0" encoding="utf-8"?>
<!-- Generator: Adobe Illustrator 22.0.1, SVG Export Plug-In . SVG Version: 6.00 Build 0)  -->
<svg version="1.1" id="Camada_1" xmlns="http://www.w3.org/2000/svg" xmlns:xlink="http://www.w3.org/1999/xlink" x="0px" y="0px"
	 viewBox="0 0 62.5 62.4" style="enable-background:new 0 0 62.5 62.4;" xml:space="preserve">
<style type="text/css">
	.st0{fill:none;stroke:#284875;stroke-linecap:round;stroke-linejoin:round;}
	.st1{fill:#ECEFF1;}
	.st2{fill:#37474F;}
	.st3{fill:#607D8B;}
</style>
<title>sync</title>
<path class="st0" d="M32.2,40.9c-13.7,0-16.7-3.7-18-5.3c-0.3-0.3-0.5-0.8-0.5-1.2c0-1.1,0.8-1.9,1.9-1.9c0.7,0,2.7,0,2.7-3.8v-0.5
	c0-7,6.2-12.7,13.8-12.7s13.8,5.7,13.8,12.7S39.8,40.9,32.2,40.9z"/>
<path class="st1" d="M32.2,39.4c6.8,0,12.3-5,12.3-11.1S39,17.1,32.2,17.1s-12.3,5-12.3,11.1v0.5c0,4.8-2.9,5.3-4.2,5.3
	c-0.2,0-0.4,0.2-0.4,0.4c0,0.1,0,0.2,0.1,0.2C16.6,36.1,19.2,39.4,32.2,39.4z"/>
<circle class="st2" cx="36.1" cy="25.6" r="1.5"/>
<circle class="st2" cx="28.4" cy="25.6" r="1.5"/>
<path class="st2" d="M32.2,34c-3.7,0-5.1-2.7-5.4-4.1c-0.1-0.4,0.2-0.8,0.6-0.9s0.8,0.2,0.9,0.6c0,0.1,0.5,2.8,3.8,2.8
	s3.8-2.7,3.8-2.8c0.1-0.4,0.5-0.7,0.9-0.6s0.7,0.5,0.6,0.8C37.4,31.3,35.9,34,32.2,34z"/>
<circle class="st2" cx="24.2" cy="41.3" r="3.5"/>
<circle class="st3" cx="24.2" cy="41.3" r="1.2"/>
<circle class="st2" cx="36.5" cy="41.3" r="3.5"/>
<circle class="st3" cx="36.5" cy="41.3" r="1.2"/>
</svg>
