<svg xmlns="http://www.w3.org/2000/svg" viewBox="0 0 62.54 62.37"><defs><style>.cls-1,.cls-2{fill:none;stroke-linecap:round;stroke-linejoin:round}.cls-1{stroke:#284875}.cls-2{stroke:#2d96ce;stroke-width:.5px;stroke-dasharray:13 11}.cls-2,.cls-3{opacity:0}.cls-4{fill:#ededed}</style></defs><title>xenon</title><g id="Layer_2" data-name="Layer 2"><g id="Layer_2-2" data-name="Layer 2"><g id="_Group_" data-name="&lt;Group&gt;"><path id="_Path_" data-name="&lt;Path&gt;" class="cls-1" d="M18.34 22.63S52 30.25 52.16 30.39s.67.4-.4 1.2-7.53 6.5-8.53 7.16-1.87 2.57-7.88.8-15.7-4.93-17.42-6.46a9.56 9.56 0 0 1-3.25-8.73c.13-.74 2.94-1.9 3.66-1.73z"/><path id="_Path_2" data-name="&lt;Path&gt;" class="cls-1" d="M20.92 24.91a2.9 2.9 0 0 0-1.42 1.42 40.23 40.23 0 0 0 .81 6.5 4.94 4.94 0 0 1-2.76-2.72c.14.27-3.1-4.85-1.18-5.65.83-.35 1.08-.89 2.27-.55 1.97.56 2.64.78 2.28 1z"/><path id="_Path_3" data-name="&lt;Path&gt;" class="cls-1" d="M24.44 24.06c-1.3.83-3.22 2.25-3.38 2.92a12.86 12.86 0 0 0 .94 5.17c.63 1 8.76 4 10.3 4.44.26.08 2.08-1.67 1.93-2-.5-1.25-4.1-8.84-4.36-9.34-1.1-.25-5.43-1.19-5.43-1.19z"/><path id="_Path_4" data-name="&lt;Path&gt;" class="cls-1" d="M34.3 34.72A14.3 14.3 0 0 0 37.84 36c.83.2 1.13.47 3.43-1.07s7.27-5.4 7.27-5.4"/><path id="_Path_5" data-name="&lt;Path&gt;" class="cls-1" d="M51.33 30.19c-1.4 1.27-6.63 5.6-7.63 6.4S41 39 38.47 38.42a50.25 50.25 0 0 1-6.37-1.86"/><path id="_Path_6" data-name="&lt;Path&gt;" class="cls-1" d="M46 29.69a18.34 18.34 0 0 0-6 .7c-1.83.6-5.3 2.4-5.16 4 1.43.37 1.8.43 2.33.6s1.13.27 3.2-1.13c0 .03 6.43-4.13 5.63-4.17z"/><path id="_Path_7" data-name="&lt;Path&gt;" class="cls-1" d="M33.84 26.92c-.67.57-2.27 1.87-1.57 3.35"/><path id="_Path_8" data-name="&lt;Path&gt;" class="cls-1" d="M22.27 25.69c2.33 1.17 2.38 1 3.2 1.06a20.74 20.74 0 0 0 2.5.17 3.75 3.75 0 0 1-.46 3.73c-.9 1-3.21 3.15-5.87 0"/><path id="_Path_9" data-name="&lt;Path&gt;" class="cls-1" d="M28 26.92c.82 0 1.36-.14 1.46.16s1.31 3.5 1.34 3.84.3 1-.2 1.5a30.65 30.65 0 0 1-3.1 2.39"/><path id="_Path_10" data-name="&lt;Path&gt;" class="cls-1" d="M23.42 26.25c.36 0 1.64 1.47 2.86 1.11s1.15.57.66 1.15c-.66.79-1.15 1.74-2.71 1s-2.34-1.97-.81-3.26z"/></g><circle id="_Path_11" data-name="&lt;Path&gt;" class="cls-2" cx="31.27" cy="30.67" r="24.25"/><g id="_Group_2" data-name="&lt;Group&gt;" class="cls-3"><circle id="_Path_12" data-name="&lt;Path&gt;" class="cls-4" cx="31.3" cy="1.37" r="1.37"/><circle class="cls-4" cx="40.34" cy="2.78" r="1.37"/><circle class="cls-4" cx="48.28" cy="6.67" r="1.37"/><circle class="cls-4" cx="54.68" cy="12.64" r="1.37"/><circle class="cls-4" cx="59.12" cy="20.24" r="1.37"/><circle class="cls-4" cx="61.17" cy="29.05" r="1.37"/><circle class="cls-4" cx="60.46" cy="38.27" r="1.37"/><circle class="cls-4" cx="57.15" cy="46.52" r="1.37"/><circle class="cls-4" cx="51.66" cy="53.35" r="1.37"/><circle class="cls-4" cx="44.43" cy="58.31" r="1.37"/><circle class="cls-4" cx="35.87" cy="61" r="1.37"/><circle class="cls-4" cx="26.6" cy="60.99" r="1.37"/><circle class="cls-4" cx="18.05" cy="58.29" r="1.37"/><circle class="cls-4" cx="10.83" cy="53.31" r="1.37"/><circle class="cls-4" cx="5.36" cy="46.47" r="1.37"/><circle class="cls-4" cx="2.06" cy="38.21" r="1.37"/><circle class="cls-4" cx="1.37" cy="28.99" r="1.37"/><circle class="cls-4" cx="3.43" cy="20.18" r="1.37"/><circle class="cls-4" cx="7.89" cy="12.59" r="1.37"/><circle class="cls-4" cx="14.3" cy="6.64" r="1.37"/><circle class="cls-4" cx="22.25" cy="2.76" r="1.37"/><circle id="_Path_13" data-name="&lt;Path&gt;" class="cls-4" cx="31.3" cy="1.37" r="1.37"/></g></g></g></svg>